<svg width="69" height="135" viewBox="0 0 69 135" fill="none" xmlns="http://www.w3.org/2000/svg">
<line x1="4" y1="107.477" x2="61.9999" y2="107.477" stroke="#CC00FF"/>
<path d="M19.7812 89.1406C19.1875 86.8281 18.0781 83.4844 16.4531 79.1094C14.8281 74.7031 13.125 70.4688 11.3438 66.4062C9.5625 62.3438 8.15625 59.5469 7.125 58.0156L2.8125 57.2656C2.375 56.0469 2.03125 54.7031 1.78125 53.2344C1.5625 51.7344 1.375 50 1.21875 48.0312C1.75 46.5625 2.5625 45.1719 3.65625 43.8594C4.75 42.5469 6.0625 41.4844 7.59375 40.6719C9.15625 39.8594 10.8438 39.4531 12.6562 39.4531C15.625 39.4531 18.0781 40.2969 20.0156 41.9844C21.9844 43.6406 23.5 45.7344 24.5625 48.2656C25.6562 50.7656 26.6094 53.7188 27.4219 57.125C29.0781 63.7188 30.1406 71.8906 30.6094 81.6406L31.6406 81.4531C32.8594 78.7344 33.8906 74.8438 34.7344 69.7812C35.6094 64.7188 36.0781 59.8594 36.1406 55.2031L30.2812 54.3125C29.5938 51.6875 29.25 48.6094 29.25 45.0781C29.9375 44.2344 30.9219 43.3906 32.2031 42.5469C33.5156 41.6719 35.0625 40.9375 36.8438 40.3438C38.625 39.75 40.5156 39.4531 42.5156 39.4531C50.5781 39.4531 54.6094 43.5 54.6094 51.5938C54.6094 57.9688 53.4531 64.1562 51.1406 70.1562C48.8594 76.1562 45.4219 81.5781 40.8281 86.4219C36.2344 91.2656 30.6406 95.0781 24.0469 97.8594L24.4219 99.4062C25.2656 99.5 26.0938 99.5469 26.9062 99.5469C29.5625 99.5469 32.7656 99.1094 36.5156 98.2344C38.6406 100.609 39.7031 103.203 39.7031 106.016C39.7031 106.859 39.6094 107.719 39.4219 108.594C37.5469 110.406 35.2031 111.969 32.3906 113.281C29.5781 114.594 26.4844 115.25 23.1094 115.25C18.2031 115.25 14.2344 114.141 11.2031 111.922C8.17188 109.703 6.65625 106.328 6.65625 101.797C6.65625 99.7656 7.26562 97.9844 8.48438 96.4531C9.73438 94.9531 11.1719 93.7344 12.7969 92.7969C14.4531 91.8281 16.7812 90.6094 19.7812 89.1406Z" fill="#CC00FF"/>
<path d="M42.1914 94.6523C42.1914 92.3997 42.569 90.388 43.3242 88.6172C44.0794 86.8464 45.2448 85.4466 46.8203 84.418C48.4089 83.3763 50.388 82.8555 52.7578 82.8555C53.5651 82.8555 54.4896 82.9076 55.5312 83.0117C56.5859 83.1029 57.5951 83.2461 58.5586 83.4414L58.9492 83.7148C59.5352 84.1185 59.9648 84.444 60.2383 84.6914C60.5247 84.9258 60.8242 85.2578 61.1367 85.6875C61.1367 86.3906 61.0391 87.3607 60.8438 88.5977C60.6615 89.8216 60.4271 90.9609 60.1406 92.0156C59.8542 93.0703 59.5807 93.7474 59.3203 94.0469C58.8906 94.2682 58.194 94.3789 57.2305 94.3789C56.7617 94.3789 56.319 94.3464 55.9023 94.2812C55.4987 94.2031 55.1927 94.1055 54.9844 93.9883L54.5742 90.375C54.3789 90.1536 53.9297 89.9779 53.2266 89.8477C52.5365 89.7044 51.8984 89.6328 51.3125 89.6328C51.1302 89.6328 50.9609 89.6458 50.8047 89.6719C50.5052 90.2839 50.2773 91.0651 50.1211 92.0156C49.9648 92.9661 49.8867 93.9362 49.8867 94.9258C49.8867 96.3581 50.1211 97.5755 50.5898 98.5781C51.0586 99.5677 52.0156 100.062 53.4609 100.062C54.1771 100.062 54.8802 99.9453 55.5703 99.7109C56.2734 99.4766 57.1589 99.1185 58.2266 98.6367C58.6693 98.4284 59.0013 98.2786 59.2227 98.1875C59.7435 98.7083 60.1536 99.2552 60.4531 99.8281C60.7526 100.401 60.9479 101.137 61.0391 102.035C60.2057 103.012 59.0339 103.982 57.5234 104.945C56.026 105.909 54.2747 106.391 52.2695 106.391C50.1341 106.391 48.3047 105.876 46.7812 104.848C45.2708 103.806 44.125 102.4 43.3438 100.629C42.5755 98.8451 42.1914 96.8529 42.1914 94.6523Z" fill="#00F0FF"/>
<path d="M60.2563 80.2788C60.2563 79.9224 60.3442 79.5903 60.52 79.2827C60.7007 78.9702 60.9814 78.7041 61.3623 78.4844C61.4648 78.4844 61.6479 78.521 61.9116 78.5942C62.1753 78.6675 62.3291 78.7114 62.373 78.7261C62.4414 78.7554 62.5122 78.7773 62.5854 78.792C62.7759 78.6309 62.9858 78.416 63.2153 78.1475C63.4497 77.874 63.6597 77.5908 63.8452 77.2979C64.0308 77 64.1553 76.7363 64.2188 76.5068C64.1992 76.4092 64.1748 76.3237 64.1455 76.2505C64.1211 76.1772 64.0747 76.1113 64.0063 76.0527C63.8159 76.0137 63.6108 75.9941 63.3911 75.9941C62.8149 75.9941 62.085 76.1919 61.2012 76.5874C60.9961 76.3481 60.8252 76.0527 60.6885 75.7012C60.5566 75.3447 60.4907 74.9736 60.4907 74.5879C60.4907 74.5 60.4932 74.4341 60.498 74.3901C60.6982 74.1899 61.0425 73.9629 61.5308 73.709C62.0239 73.4502 62.7002 73.3208 63.5596 73.3208C64.6143 73.3208 65.4932 73.5088 66.1963 73.8848C66.8994 74.2559 67.251 74.8687 67.251 75.7231C67.251 76.3335 67.0605 76.8779 66.6797 77.3564C66.3037 77.835 65.9058 78.2109 65.4858 78.4844C65.0659 78.7578 64.5996 79.0264 64.0869 79.29V79.3999L65.8813 79.605L66.3208 78.7847L67.522 78.8799C67.6196 79.1289 67.6953 79.3633 67.749 79.583C67.8076 79.8027 67.8369 80.0273 67.8369 80.2568C67.8369 80.5986 67.7612 80.9136 67.6099 81.2017C67.4585 81.4897 67.2485 81.7192 66.98 81.8901C66.7163 82.061 66.4233 82.1465 66.1011 82.1465C65.6323 82.1465 65.1489 82.0244 64.6509 81.7803C64.1528 81.5312 63.6719 81.2139 63.208 80.8281C62.9883 81.209 62.7344 81.5044 62.4463 81.7144C62.1582 81.9243 61.7993 82.0439 61.3696 82.0732C61.1499 82.0146 60.9546 81.8975 60.7837 81.7217C60.6177 81.5459 60.4883 81.3335 60.3955 81.0845C60.3027 80.8306 60.2563 80.562 60.2563 80.2788Z" fill="#00F0FF"/>
<path d="M24.8594 126.273C24.8594 124.346 24.9089 122.568 25.0078 120.938L24.125 120.781C24 120.302 23.9375 119.786 23.9375 119.234C24.0156 119.135 24.1615 119.013 24.375 118.867C24.5885 118.721 24.8359 118.594 25.1172 118.484C25.4036 118.375 25.6875 118.32 25.9688 118.32C26.6094 118.32 27.0859 118.484 27.3984 118.812C27.7109 119.141 27.8672 119.643 27.8672 120.32C27.8672 120.721 27.8307 121.341 27.7578 122.18C27.6901 123.013 27.5911 123.818 27.4609 124.594L27.2422 125.922L27.4922 126.008L27.7578 124.977C28.0078 124.013 28.3854 123.234 28.8906 122.641C29.401 122.042 30.0391 121.742 30.8047 121.742C31.3776 121.742 31.8438 121.867 32.2031 122.117C32.5677 122.362 32.8307 122.688 32.9922 123.094C33.1536 123.495 33.2344 123.938 33.2344 124.422C33.2344 125.078 33.1719 125.815 33.0469 126.633C32.9219 127.445 32.7552 128.206 32.5469 128.914C32.3438 129.607 32.0052 130.154 31.5312 130.555C31.0625 130.956 30.4766 131.156 29.7734 131.156C29.4974 131.156 29.1432 131.104 28.7109 131C28.2786 130.896 27.7995 130.727 27.2734 130.492C27.1953 130.622 27.1068 130.75 27.0078 130.875C26.9141 131 26.8307 131.094 26.7578 131.156C26.3724 131.156 26.0495 131.125 25.7891 131.062C25.5286 131 25.3333 130.935 25.2031 130.867C25.0729 130.794 25.0078 130.75 25.0078 130.734C24.9089 129.661 24.8594 128.174 24.8594 126.273ZM29.625 129.094C29.6875 129.094 29.7266 129.089 29.7422 129.078C29.9297 128.375 30.0234 127.31 30.0234 125.883C30.0234 125.638 30.0104 125.44 29.9844 125.289C29.8646 125.138 29.6927 125.062 29.4688 125.062C29.3958 125.125 29.1458 125.536 28.7188 126.297C28.2917 127.052 27.9766 127.633 27.7734 128.039V128.414C28.0599 128.612 28.3906 128.776 28.7656 128.906C29.1406 129.031 29.4271 129.094 29.625 129.094Z" fill="#00FF1A"/>
<path d="M27.0391 32.8516C27.3464 32.8516 27.6849 32.8828 28.0547 32.9453C28.4297 33.0078 28.7734 33.0833 29.0859 33.1719V32.9297C29.0859 32.7682 29.0807 32.5885 29.0703 32.3906C29.0651 32.1927 29.0547 32.0625 29.0391 32C28.9922 31.9115 28.8568 31.8203 28.6328 31.7266C28.4141 31.6328 28.0547 31.5859 27.5547 31.5859C27.2474 31.5859 26.9297 31.625 26.6016 31.7031C26.2786 31.776 25.9193 31.875 25.5234 32C25.3099 31.6458 25.138 31.3099 25.0078 30.9922C24.8828 30.6693 24.8203 30.3464 24.8203 30.0234C24.8203 29.9245 24.8281 29.8255 24.8438 29.7266C25.6875 29.0703 26.7786 28.7422 28.1172 28.7422C28.8568 28.7422 29.513 28.8255 30.0859 28.9922C30.6589 29.1589 31.1302 29.4818 31.5 29.9609C31.8698 30.4401 32.0547 31.1198 32.0547 32C32.0547 32.8594 31.9531 33.6927 31.75 34.5C31.5521 35.3021 31.4505 35.7109 31.4453 35.7266L32.5781 35.2422C32.7292 35.4036 32.862 35.6016 32.9766 35.8359C33.0964 36.0651 33.1719 36.3307 33.2031 36.6328C33.1302 36.7891 32.9714 36.9896 32.7266 37.2344C32.4818 37.474 32.1823 37.6875 31.8281 37.875C31.474 38.0625 31.1042 38.1562 30.7188 38.1562C30.2865 38.1562 29.9583 38.0286 29.7344 37.7734C29.5156 37.5182 29.4062 37.1875 29.4062 36.7812C29.4062 36.5521 29.4401 36.3203 29.5078 36.0859L29.2734 36.0156C29.1276 36.8385 28.8177 37.401 28.3438 37.7031C27.8698 38.0052 27.3464 38.1562 26.7734 38.1562C26.3984 38.1562 26.0365 38.0521 25.6875 37.8438C25.3385 37.6302 25.0547 37.3229 24.8359 36.9219C24.6172 36.5156 24.5078 36.0417 24.5078 35.5C24.5078 34.6354 24.724 33.9792 25.1562 33.5312C25.5885 33.0781 26.2161 32.8516 27.0391 32.8516ZM27.9297 35.8281C28.0599 35.8021 28.2135 35.7292 28.3906 35.6094C28.5729 35.4896 28.7344 35.3464 28.875 35.1797C29.0156 35.013 29.099 34.8542 29.125 34.7031L29.0781 34.5156C28.8021 34.4792 28.5078 34.4609 28.1953 34.4609C27.9297 34.4609 27.7474 34.4818 27.6484 34.5234C27.4818 34.7109 27.3984 34.9193 27.3984 35.1484C27.3984 35.3151 27.4401 35.4661 27.5234 35.6016C27.612 35.737 27.7474 35.8125 27.9297 35.8281Z" fill="#FF0000"/>
</svg>
